<svg width="23" height="29" viewBox="0 0 23 29" fill="none" xmlns="http://www.w3.org/2000/svg">
<path d="M15.8586 9.20239C15.7712 8.24109 15.3823 7.49391 14.6919 6.96083C14.0103 6.41901 13.0359 6.1481 11.7687 6.1481C10.9298 6.1481 10.2307 6.25734 9.67136 6.47582C9.11207 6.69429 8.69259 6.99579 8.41294 7.3803C8.1333 7.75608 7.9891 8.18866 7.98036 8.67805C7.96289 9.08004 8.04154 9.43397 8.21632 9.73984C8.39984 10.0457 8.66201 10.3166 9.00283 10.5526C9.35239 10.7798 9.77186 10.9808 10.2612 11.1556C10.7506 11.3303 11.3012 11.4833 11.9129 11.6144L14.22 12.1387C15.5483 12.4271 16.7194 12.8116 17.7331 13.2922C18.7556 13.7729 19.612 14.3453 20.3024 15.0095C21.0015 15.6736 21.5302 16.4383 21.8885 17.3034C22.2468 18.1686 22.4303 19.1386 22.4391 20.2135C22.4303 21.9089 22.0021 23.364 21.1544 24.5787C20.3067 25.7934 19.0876 26.7241 17.4971 27.3708C15.9154 28.0175 14.0059 28.3408 11.7687 28.3408C9.5228 28.3408 7.56526 28.0044 5.89611 27.3315C4.22696 26.6586 2.92921 25.6361 2.00288 24.2641C1.07654 22.892 0.600268 21.1574 0.574051 19.06H6.78749C6.83992 19.9252 7.07151 20.6461 7.48224 21.2229C7.89297 21.7997 8.45664 22.2366 9.17324 22.5337C9.89858 22.8309 10.7375 22.9794 11.6901 22.9794C12.564 22.9794 13.3068 22.8615 13.9185 22.6255C14.539 22.3896 15.0153 22.0618 15.3473 21.6424C15.6794 21.2229 15.8498 20.7423 15.8586 20.2004C15.8498 19.6936 15.6925 19.261 15.3867 18.9027C15.0808 18.5357 14.6089 18.221 13.971 17.9589C13.3417 17.688 12.5378 17.4389 11.559 17.2117L8.75377 16.5563C6.42919 16.0232 4.59837 15.1624 3.2613 13.9739C1.92423 12.7766 1.26006 11.1599 1.2688 9.12374C1.26006 7.46332 1.70575 6.00828 2.60587 4.7586C3.50599 3.50892 4.7513 2.53452 6.3418 1.8354C7.9323 1.13628 9.74564 0.786719 11.7818 0.786719C13.8617 0.786719 15.6663 1.14065 17.1956 1.84851C18.7337 2.54763 19.9266 3.53077 20.7743 4.79793C21.622 6.06508 22.0545 7.53324 22.072 9.20239H15.8586Z" fill="url(#paint0_radial_1_597)"/>
<defs>
<radialGradient id="paint0_radial_1_597" cx="0" cy="0" r="1" gradientUnits="userSpaceOnUse" gradientTransform="translate(0.391233 28.3458) rotate(-20.298) scale(25.3743 5369.23)">
<stop stop-color="#EB568E"/>
<stop offset="1" stop-color="#144EE3"/>
</radialGradient>
</defs>
</svg>
