<svg width="20" height="16" viewBox="0 0 20 16" fill="none" xmlns="http://www.w3.org/2000/svg">
<path d="M1.73242 0.492188L19.5742 14.5547C19.75 14.7012 19.8086 15.0234 19.6328 15.1992C19.4863 15.4043 19.1934 15.4629 18.9883 15.2871L1.17578 1.22461C0.970703 1.07812 0.912109 0.755859 1.08789 0.580078C1.23438 0.375 1.55664 0.316406 1.73242 0.492188ZM18.3145 7.875L16.1465 10.0723L15.4141 9.48633L17.6406 7.23047C18.7539 6.11719 18.7539 4.35938 17.6406 3.24609C16.5566 2.16211 14.7695 2.16211 13.6855 3.24609L13.0117 3.91992C12.8359 4.0957 12.543 4.0957 12.3379 3.91992C12.1621 3.71484 12.1621 3.42188 12.3379 3.24609L13.0117 2.57227C14.4766 1.10742 16.8496 1.10742 18.3145 2.57227C19.7793 4.03711 19.7793 6.41016 18.3145 7.875ZM13.1289 12.4746C11.8398 12.8555 10.4043 12.5625 9.37891 11.5371C8.58789 10.7461 8.20703 9.69141 8.29492 8.63672L9.26172 9.39844C9.34961 9.95508 9.61328 10.4531 10.0234 10.8633C10.6094 11.4492 11.4004 11.7422 12.1621 11.6836L13.1289 12.4746ZM10.6973 4.91602V4.88672C10.1113 4.33008 9.32031 4.03711 8.55859 4.06641L7.5918 3.30469C8.88086 2.92383 10.3457 3.2168 11.3418 4.24219C12.1328 5.0332 12.5137 6.08789 12.4551 7.14258L11.459 6.38086C11.3711 5.82422 11.1074 5.32617 10.6973 4.91602ZM5.33594 6.29297L3.08008 8.54883C1.9668 9.66211 1.9668 11.4199 3.08008 12.5332C4.16406 13.6172 5.95117 13.6172 7.03516 12.5332L7.70898 11.8594C7.88477 11.6836 8.17773 11.6836 8.38281 11.8594C8.55859 12.0352 8.55859 12.3574 8.38281 12.5332L7.70898 13.1777C6.24414 14.6426 3.87109 14.6426 2.40625 13.1777C0.941406 11.7129 0.941406 9.33984 2.40625 7.875L4.57422 5.70703L5.33594 6.29297Z" fill="#B0901E"/>
</svg>
