<svg width="133" height="30" viewBox="0 0 133 30" fill="none" xmlns="http://www.w3.org/2000/svg">
<path d="M15.7766 10.2024C15.6892 9.24109 15.3003 8.49391 14.6099 7.96083C13.9283 7.41901 12.9539 7.1481 11.6867 7.1481C10.8478 7.1481 10.1487 7.25734 9.58938 7.47582C9.03008 7.69429 8.61061 7.99579 8.33096 8.3803C8.05131 8.75608 7.90712 9.18866 7.89838 9.67805C7.8809 10.08 7.95955 10.434 8.13433 10.7398C8.31785 11.0457 8.58002 11.3166 8.92084 11.5526C9.2704 11.7798 9.68988 11.9808 10.1793 12.1556C10.6686 12.3303 11.2192 12.4833 11.8309 12.6144L14.138 13.1387C15.4664 13.4271 16.6374 13.8116 17.6511 14.2922C18.6736 14.7729 19.53 15.3453 20.2204 16.0095C20.9195 16.6736 21.4482 17.4383 21.8065 18.3034C22.1648 19.1686 22.3483 20.1386 22.3571 21.2135C22.3483 22.9089 21.9201 24.364 21.0724 25.5787C20.2248 26.7934 19.0057 27.7241 17.4152 28.3708C15.8334 29.0175 13.9239 29.3408 11.6867 29.3408C9.44082 29.3408 7.48328 29.0044 5.81413 28.3315C4.14497 27.6586 2.84723 26.6361 1.9209 25.2641C0.994561 23.892 0.518285 22.1574 0.492068 20.06H6.7055C6.75794 20.9252 6.98952 21.6461 7.40026 22.2229C7.81099 22.7997 8.37466 23.2366 9.09125 23.5337C9.81659 23.8309 10.6555 23.9794 11.6081 23.9794C12.482 23.9794 13.2248 23.8615 13.8365 23.6255C14.457 23.3896 14.9333 23.0618 15.2654 22.6424C15.5974 22.2229 15.7679 21.7423 15.7766 21.2004C15.7679 20.6936 15.6106 20.261 15.3047 19.9027C14.9988 19.5357 14.5269 19.221 13.889 18.9589C13.2598 18.688 12.4558 18.4389 11.477 18.2117L8.67178 17.5563C6.34721 17.0232 4.51638 16.1624 3.17931 14.9739C1.84225 13.7766 1.17808 12.1599 1.18682 10.1237C1.17808 8.46332 1.62377 7.00828 2.52389 5.7586C3.42401 4.50892 4.66932 3.53452 6.25982 2.8354C7.85032 2.13628 9.66366 1.78672 11.6999 1.78672C13.7797 1.78672 15.5843 2.14065 17.1137 2.84851C18.6517 3.54763 19.8446 4.53077 20.6923 5.79793C21.54 7.06508 21.9726 8.53324 21.99 10.2024H15.7766ZM32.0443 17.5169V29H25.6342V2.15376H31.8345V12.5619H32.0574C32.5118 11.321 33.2546 10.351 34.2858 9.65183C35.3258 8.95271 36.5973 8.60315 38.1004 8.60315C39.5161 8.60315 40.7483 8.91775 41.797 9.54696C42.8457 10.1674 43.6584 11.0457 44.2352 12.1818C44.8207 13.3178 45.1091 14.6462 45.1003 16.1668V29H38.6903V17.4252C38.699 16.3066 38.4194 15.4327 37.8513 14.8035C37.2833 14.1743 36.4837 13.8597 35.4525 13.8597C34.7796 13.8597 34.1853 14.0082 33.6697 14.3054C33.1629 14.5937 32.7652 15.0088 32.4768 15.5507C32.1972 16.0925 32.053 16.7479 32.0443 17.5169ZM58.5005 29.3801C56.3857 29.3801 54.568 28.9476 53.0474 28.0824C51.5355 27.2085 50.3689 25.9938 49.5474 24.4382C48.7347 22.874 48.3283 21.0606 48.3283 18.9982C48.3283 16.9271 48.7347 15.1137 49.5474 13.5582C50.3689 11.9939 51.5355 10.7792 53.0474 9.914C54.568 9.0401 56.3857 8.60315 58.5005 8.60315C60.6154 8.60315 62.4287 9.0401 63.9406 9.914C65.4612 10.7792 66.6278 11.9939 67.4405 13.5582C68.262 15.1137 68.6727 16.9271 68.6727 18.9982C68.6727 21.0606 68.262 22.874 67.4405 24.4382C66.6278 25.9938 65.4612 27.2085 63.9406 28.0824C62.4287 28.9476 60.6154 29.3801 58.5005 29.3801ZM58.5399 24.5431C59.3089 24.5431 59.9599 24.3072 60.493 23.8352C61.0261 23.3633 61.4325 22.7079 61.7121 21.869C62.0005 21.03 62.1447 20.06 62.1447 18.9589C62.1447 17.8403 62.0005 16.8615 61.7121 16.0226C61.4325 15.1836 61.0261 14.5282 60.493 14.0563C59.9599 13.5844 59.3089 13.3484 58.5399 13.3484C57.7446 13.3484 57.0717 13.5844 56.5211 14.0563C55.9793 14.5282 55.5642 15.1836 55.2758 16.0226C54.9962 16.8615 54.8564 17.8403 54.8564 18.9589C54.8564 20.06 54.9962 21.03 55.2758 21.869C55.5642 22.7079 55.9793 23.3633 56.5211 23.8352C57.0717 24.3072 57.7446 24.5431 58.5399 24.5431ZM71.9564 29V8.86532H78.183V12.5357H78.3927C78.7597 11.2074 79.3584 10.2199 80.1886 9.57318C81.0188 8.91775 81.9844 8.59004 83.0855 8.59004C83.3827 8.59004 83.6885 8.61189 84.0031 8.65558C84.3178 8.69054 84.6105 8.74734 84.8814 8.82599V14.3971C84.5756 14.2922 84.1736 14.2092 83.6754 14.1481C83.186 14.0869 82.7491 14.0563 82.3646 14.0563C81.6043 14.0563 80.9183 14.2267 80.3065 14.5675C79.7036 14.8996 79.2273 15.3671 78.8777 15.9701C78.5369 16.5644 78.3665 17.2635 78.3665 18.0675V29H71.9564ZM99.7956 8.86532V13.5844H87.0935V8.86532H99.7956ZM89.7545 4.04138H96.1646V22.6686C96.1646 23.0618 96.2258 23.3808 96.3481 23.6255C96.4792 23.8615 96.6671 24.0319 96.9118 24.1367C97.1565 24.2329 97.4492 24.2809 97.79 24.2809C98.0347 24.2809 98.2925 24.2591 98.5634 24.2154C98.8431 24.163 99.0528 24.1193 99.1926 24.0843L100.163 28.7116C99.8568 28.799 99.4242 28.9082 98.8649 29.0393C98.3144 29.1704 97.6546 29.2534 96.8855 29.2884C95.3824 29.3583 94.0934 29.1835 93.0185 28.764C91.9524 28.3358 91.1353 27.6717 90.5672 26.7716C90.0079 25.8714 89.737 24.7397 89.7545 23.3764V4.04138ZM103.066 29V8.86532H109.476V29H103.066ZM106.278 6.51889C105.378 6.51889 104.604 6.22177 103.958 5.62752C103.311 5.02452 102.988 4.29918 102.988 3.4515C102.988 2.61256 103.311 1.89596 103.958 1.3017C104.604 0.698712 105.378 0.397216 106.278 0.397216C107.187 0.397216 107.96 0.698712 108.598 1.3017C109.245 1.89596 109.568 2.61256 109.568 3.4515C109.568 4.29918 109.245 5.02452 108.598 5.62752C107.96 6.22177 107.187 6.51889 106.278 6.51889ZM122.968 29.3801C120.862 29.3801 119.044 28.965 117.515 28.1348C115.994 27.2959 114.823 26.103 114.002 24.5562C113.189 23.0007 112.783 21.1524 112.783 19.0113C112.783 16.9314 113.194 15.1137 114.015 13.5582C114.837 11.9939 115.994 10.7792 117.489 9.914C118.983 9.0401 120.744 8.60315 122.772 8.60315C124.205 8.60315 125.516 8.82599 126.704 9.27168C127.893 9.71737 128.919 10.3772 129.785 11.2511C130.65 12.125 131.323 13.2042 131.803 14.4889C132.284 15.7648 132.524 17.2286 132.524 18.8802V20.4795H115.024V16.7566H126.56C126.551 16.075 126.39 15.4676 126.075 14.9346C125.76 14.4015 125.328 13.9864 124.777 13.6893C124.235 13.3834 123.611 13.2305 122.903 13.2305C122.186 13.2305 121.544 13.3921 120.976 13.7155C120.408 14.0301 119.958 14.4627 119.626 15.0132C119.293 15.555 119.119 16.1711 119.101 16.8615V20.6499C119.101 21.4713 119.263 22.1923 119.586 22.8128C119.91 23.4245 120.368 23.9008 120.963 24.2416C121.557 24.5824 122.265 24.7528 123.086 24.7528C123.654 24.7528 124.17 24.6742 124.633 24.5169C125.096 24.3596 125.494 24.128 125.826 23.8221C126.158 23.5163 126.407 23.1405 126.573 22.6948L132.459 22.8652C132.214 24.1848 131.677 25.334 130.846 26.3128C130.025 27.2828 128.946 28.0387 127.609 28.5805C126.272 29.1136 124.725 29.3801 122.968 29.3801Z" fill="url(#paint0_radial_1_597)"/>
<defs>
<radialGradient id="paint0_radial_1_597" cx="0" cy="0" r="1" gradientUnits="userSpaceOnUse" gradientTransform="translate(6.51266 29.3458) rotate(-3.91834) scale(128.814 5711.35)">
<stop stop-color="#EB568E"/>
<stop offset="1" stop-color="#144EE3"/>
</radialGradient>
</defs>
</svg>
